<svg width="100.00000000000001" height="100.00000000000001" xmlns="http://www.w3.org/2000/svg" xml:space="preserve" version="1.1">

 <g>
  <title>main</title>
  <path id="A" d="m85.3,32.4c-1.9,0 -3.4,1.5 -3.4,3.5c0,1.9 1.5,3.4 3.4,3.4s3.5,-1.5 3.5,-3.4c-0.1,-2 -1.6,-3.5 -3.5,-3.5z"/>
  <path id="X" d="m78.6,25.8c-0.4,-0.2 -0.9,-0.3 -1.3,-0.3c-1.9,0 -3.4,1.5 -3.4,3.4c0,0.5 0.1,0.9 0.3,1.3c0.5,1.2 1.7,2.1 3.2,2.1c1.9,0 3.4,-1.5 3.4,-3.4c-0.1,-1.4 -1,-2.6 -2.2,-3.1z"/>
  <path id="B" d="m77.1,39.4c-1.9,0 -3.4,1.5 -3.4,3.4c0,1.9 1.5,3.5 3.4,3.5c1.9,0 3.4,-1.6 3.4,-3.5c0,-1.8 -1.5,-3.4 -3.4,-3.4z"/>
  <path id="Y" d="m69.1,32.4c-1.2,0 -2.2,0.6 -2.8,1.5c-0.4,0.6 -0.6,1.2 -0.6,2c0,0.9 0.4,1.8 1,2.4c0.6,0.6 1.5,1 2.4,1c1.9,0 3.5,-1.5 3.5,-3.4c0,-2 -1.6,-3.5 -3.5,-3.5z"/>
  <path id="Plus" d="m62.4,30.2c1.1,0 1.9,-0.9 1.9,-1.9c0,-1.1 -0.9,-1.9 -1.9,-1.9c-1.1,0 -2,0.9 -2,1.9c0,1.1 0.9,1.9 2,1.9z"/>
  <path id="Home" d="m57.1,37.8c1.1,0 2,-0.9 2,-2c0,-1.1 -0.9,-1.9 -2,-1.9c-1.1,0 -1.9,0.9 -1.9,1.9c-0.1,1.1 0.8,2 1.9,2z"/>
  <path id="RST" d="m63.5,42.1c-4.5,0 -8.1,3.6 -8.1,8.1c0,4.5 3.6,8.1 8.1,8.1c4.5,0 8.1,-3.7 8.1,-8.1c0,-4.5 -3.7,-8.1 -8.1,-8.1zm0,13.7c-3,0 -5.5,-2.5 -5.5,-5.5c0,-3 2.5,-5.5 5.5,-5.5s5.5,2.5 5.5,5.5c0,3 -2.5,5.5 -5.5,5.5z"/>
  <path id="Capture" d="m43.5,34.3l-1.9,0c-0.4,0 -0.8,0.4 -0.8,0.8l0,1.9c0,0.5 0.4,0.8 0.8,0.8l1.9,0c0.4,0 0.8,-0.4 0.8,-0.8l0,-1.9c0,-0.4 -0.3,-0.8 -0.8,-0.8z"/>
  <circle id="Minus" r="1.9" cy="28.3" cx="37.1"/>
  <path id="DPad" d="m40.8,47.8l-4.4,0l0,-4.4c0,-0.5 -0.4,-0.9 -0.9,-0.9l-3.1,0c-0.1,0 -0.3,0 -0.4,0.1c-0.3,0.1 -0.5,0.5 -0.5,0.8l0,4.4l-4.4,0c-0.5,0 -0.9,0.4 -0.9,0.9l0,3.1c0,0.5 0.4,0.9 0.9,0.9l4.4,0l0,4.4c0,0.5 0.4,0.9 0.9,0.9l1.2,0l1.9,0c0.5,0 0.9,-0.4 0.9,-0.9l0,-4.4l4.4,0c0.5,0 0.9,-0.4 0.9,-0.9l0,-3.1c0.1,-0.5 -0.4,-0.9 -0.9,-0.9z"/>
  <path id="LST" d="m29.5,36c0,-4.5 -3.6,-8.1 -8.1,-8.1c-3.6,0 -6.7,2.4 -7.8,5.7c-0.2,0.8 -0.4,1.6 -0.4,2.4c0,4.5 3.7,8.1 8.1,8.1c2,0 3.7,-0.7 5.2,-1.9c1.8,-1.4 3,-3.6 3,-6.2zm-8.1,5.6c-3,0 -5.5,-2.5 -5.5,-5.5c0,-3 2.5,-5.5 5.5,-5.5s5.5,2.5 5.5,5.5c0,3 -2.5,5.5 -5.5,5.5z"/>
  <path id="Body" d="m97.5,47c-0.8,-6.2 -2.1,-11 -3.2,-14.9c-1,-3.2 -2.7,-6.1 -5.2,-8.4c-0.1,-0.2 -2.5,-4 -5.1,-5.5c-2.7,-1.5 -4.6,-2.4 -9.3,-3c-2.2,-0.3 -3.4,-0.4 -5.8,-0.4c0,0 -0.1,0 -0.1,0c-2.6,0 -4.9,2.1 -5.9,3l-26.7,0l-0.1,0c-1,-0.9 -3.5,-3 -6,-3c-2.3,0 -3.6,0.2 -5.8,0.4c-4.7,0.5 -6.6,1.5 -9.3,3c-2.7,1.5 -4.9,6.3 -5.2,6.8c-1.7,2.1 -3.1,4.5 -3.9,7.1c-1.1,3.9 -2.4,8.8 -3.1,14.9c-1.1,8.6 -1.5,14.6 -1.7,22.9c-0.2,8.9 5.4,13 8.7,14c0.7,0.2 1.3,0.3 2,0.3c3.3,0 7,-2.3 8.9,-7.4c2,-5.4 3.6,-8.6 3.6,-8.6c0.1,-0.1 1.1,-2.1 4.3,-2.2c4.2,0 21.2,0 21.3,0c0,0 17.6,0 21.7,0.1c3.2,0.1 4.3,2.1 4.3,2.2c0,0 1.6,3.2 3.6,8.6c2.3,6.1 7.2,8.2 10.9,7.1c3.3,-1 8.9,-5.2 8.7,-14c-0.1,-8.4 -0.6,-14.4 -1.6,-23zm-7.8,34.4c-2.5,0.8 -5.9,-0.9 -7.7,-5.5c-2.1,-5.5 -3.6,-8.7 -3.7,-8.8c-0.1,-0.1 -1.7,-3.6 -6.7,-3.7c-1.5,0 -4.7,0 -8.2,-0.1c-6.3,0 -13.6,0 -13.6,0s-9.7,0 -16.2,0c-2.2,0 -4.1,0 -5.1,0c-4.9,0.1 -6.6,3.6 -6.6,3.7c-0.1,0.1 -1.6,3.3 -3.7,8.9c-1.7,4.6 -5.2,6.3 -7.7,5.5c-2.6,-0.8 -7,-4.1 -6.8,-11.4c0.2,-8.2 0.6,-14.2 1.7,-22.6c0.8,-6 2,-10.7 3.1,-14.5c1,-3.5 3.2,-6.6 6.3,-8.9c4.1,-3 16.8,-3.6 21.4,-3.5l26.1,0l1.7,0c3.1,0 9.9,0.2 15.3,1.4c2.6,0.5 4.8,1.3 6.2,2.3c3,2.2 5.1,5.3 6.1,8.8c1.1,3.8 2.4,8.6 3.1,14.5c1,8.4 1.5,14.4 1.7,22.6c0.3,7.2 -4.1,10.5 -6.7,11.3z"/>
  <text id="svg_13" font-family="'Helvetica Neue', Helvetica, Arial-Unicode, Arial, Sans-serif" font-weight="bold" font-size="5px" fill="#000000" y="115" x="0">Created by Chad Remsing</text>
  <text id="svg_14" font-family="'Helvetica Neue', Helvetica, Arial-Unicode, Arial, Sans-serif" font-weight="bold" font-size="5px" fill="#000000" y="120" x="0">from the Noun Project</text>
 </g>
</svg>