<svg xmlns="http://www.w3.org/2000/svg" xmlns:xlink="http://www.w3.org/1999/xlink" version="1.1" x="0px" y="0px" viewBox="0 0 100 125" style="enable-background:new 0 0 100 100;" xml:space="preserve"><path d="M85.3,32.4c-1.9,0-3.4,1.5-3.4,3.5c0,1.9,1.5,3.4,3.4,3.4s3.5-1.5,3.5-3.4C88.7,33.9,87.2,32.4,85.3,32.4z"/><path d="M78.6,25.8c-0.4-0.2-0.9-0.3-1.3-0.3c-1.9,0-3.4,1.5-3.4,3.4c0,0.5,0.1,0.9,0.3,1.3c0.5,1.2,1.7,2.1,3.2,2.1  c1.9,0,3.4-1.5,3.4-3.4C80.7,27.5,79.8,26.3,78.6,25.8z"/><path d="M77.1,39.4c-1.9,0-3.4,1.5-3.4,3.4c0,1.9,1.5,3.5,3.4,3.5c1.9,0,3.4-1.6,3.4-3.5C80.5,41,79,39.4,77.1,39.4z"/><path d="M69.1,32.4c-1.2,0-2.2,0.6-2.8,1.5c-0.4,0.6-0.6,1.2-0.6,2c0,0.9,0.4,1.8,1,2.4c0.6,0.6,1.5,1,2.4,1c1.9,0,3.5-1.5,3.5-3.4  C72.6,33.9,71,32.4,69.1,32.4z"/><path d="M62.4,30.2c1.1,0,1.9-0.9,1.9-1.9c0-1.1-0.9-1.9-1.9-1.9c-1.1,0-2,0.9-2,1.9C60.4,29.4,61.3,30.2,62.4,30.2z"/><path d="M57.1,37.8c1.1,0,2-0.9,2-2c0-1.1-0.9-1.9-2-1.9c-1.1,0-1.9,0.9-1.9,1.9C55.1,36.9,56,37.8,57.1,37.8z"/><path d="M63.5,42.1c-4.5,0-8.1,3.6-8.1,8.1c0,4.5,3.6,8.1,8.1,8.1c4.5,0,8.1-3.7,8.1-8.1C71.6,45.7,67.9,42.1,63.5,42.1z M63.5,55.8  c-3,0-5.5-2.5-5.5-5.5c0-3,2.5-5.5,5.5-5.5s5.5,2.5,5.5,5.5C69,53.3,66.5,55.8,63.5,55.8z"/><path d="M43.5,34.3h-1.9c-0.4,0-0.8,0.4-0.8,0.8V37c0,0.5,0.4,0.8,0.8,0.8h1.9c0.4,0,0.8-0.4,0.8-0.8v-1.9  C44.3,34.7,44,34.3,43.5,34.3z"/><circle cx="37.1" cy="28.3" r="1.9"/><path d="M40.8,47.8h-4.4v-4.4c0-0.5-0.4-0.9-0.9-0.9h-3.1c-0.1,0-0.3,0-0.4,0.1c-0.3,0.1-0.5,0.5-0.5,0.8v4.4h-4.4  c-0.5,0-0.9,0.4-0.9,0.9v3.1c0,0.5,0.4,0.9,0.9,0.9h4.4v4.4c0,0.5,0.4,0.9,0.9,0.9h1.2h1.9c0.5,0,0.9-0.4,0.9-0.9v-4.4h4.4  c0.5,0,0.9-0.4,0.9-0.9v-3.1C41.8,48.2,41.3,47.8,40.8,47.8z"/><path d="M29.5,36c0-4.5-3.6-8.1-8.1-8.1c-3.6,0-6.7,2.4-7.8,5.7c-0.2,0.8-0.4,1.6-0.4,2.4c0,4.5,3.7,8.1,8.1,8.1  c2,0,3.7-0.7,5.2-1.9C28.3,40.8,29.5,38.6,29.5,36z M21.4,41.6c-3,0-5.5-2.5-5.5-5.5c0-3,2.5-5.5,5.5-5.5s5.5,2.5,5.5,5.5  C26.9,39.1,24.4,41.6,21.4,41.6z"/><path d="M97.5,47c-0.8-6.2-2.1-11-3.2-14.9c-1-3.2-2.7-6.1-5.2-8.4c-0.1-0.2-2.5-4-5.1-5.5c-2.7-1.5-4.6-2.4-9.3-3  c-2.2-0.3-3.4-0.4-5.8-0.4c0,0-0.1,0-0.1,0c-2.6,0-4.9,2.1-5.9,3H36.2h-0.1c-1-0.9-3.5-3-6-3c-2.3,0-3.6,0.2-5.8,0.4  c-4.7,0.5-6.6,1.5-9.3,3c-2.7,1.5-4.9,6.3-5.2,6.8c-1.7,2.1-3.1,4.5-3.9,7.1C4.8,36,3.5,40.9,2.8,47c-1.1,8.6-1.5,14.6-1.7,22.9  c-0.2,8.9,5.4,13,8.7,14c0.7,0.2,1.3,0.3,2,0.3c3.3,0,7-2.3,8.9-7.4c2-5.4,3.6-8.6,3.6-8.6c0.1-0.1,1.1-2.1,4.3-2.2  C32.8,66,49.8,66,49.9,66c0,0,17.6,0,21.7,0.1c3.2,0.1,4.3,2.1,4.3,2.2c0,0,1.6,3.2,3.6,8.6c2.3,6.1,7.2,8.2,10.9,7.1  c3.3-1,8.9-5.2,8.7-14C99,61.6,98.5,55.6,97.5,47z M89.7,81.4c-2.5,0.8-5.9-0.9-7.7-5.5c-2.1-5.5-3.6-8.7-3.7-8.8  c-0.1-0.1-1.7-3.6-6.7-3.7c-1.5,0-4.7,0-8.2-0.1c-6.3,0-13.6,0-13.6,0s-9.7,0-16.2,0c-2.2,0-4.1,0-5.1,0c-4.9,0.1-6.6,3.6-6.6,3.7  c-0.1,0.1-1.6,3.3-3.7,8.9c-1.7,4.6-5.2,6.3-7.7,5.5C7.9,80.6,3.5,77.3,3.7,70c0.2-8.2,0.6-14.2,1.7-22.6c0.8-6,2-10.7,3.1-14.5  c1-3.5,3.2-6.6,6.3-8.9c4.1-3,16.8-3.6,21.4-3.5h26.1H64c3.1,0,9.9,0.2,15.3,1.4c2.6,0.5,4.8,1.3,6.2,2.3c3,2.2,5.1,5.3,6.1,8.8  c1.1,3.8,2.4,8.6,3.1,14.5c1,8.4,1.5,14.4,1.7,22.6C96.7,77.3,92.3,80.6,89.7,81.4z"/><text x="0" y="115" fill="#000000" font-size="5px" font-weight="bold" font-family="'Helvetica Neue', Helvetica, Arial-Unicode, Arial, Sans-serif">Created by Chad Remsing</text><text x="0" y="120" fill="#000000" font-size="5px" font-weight="bold" font-family="'Helvetica Neue', Helvetica, Arial-Unicode, Arial, Sans-serif">from the Noun Project</text></svg>